nColumns=19
nRows=40
DataType=double
version=3
OpenSimVersion=4.1
endheader
time	ground_force_calcn_r_vx	ground_force_calcn_r_vy	ground_force_calcn_r_vz	ground_force_calcn_r_px	ground_force_calcn_r_py	ground_force_calcn_r_pz	ground_force_calcn_r_mx	ground_force_calcn_r_my	ground_force_calcn_r_mz	ground_force_calcn_l_vx	ground_force_calcn_l_vy	ground_force_calcn_l_vz	ground_force_calcn_l_px	ground_force_calcn_l_py	ground_force_calcn_l_pz	ground_force_calcn_l_mx	ground_force_calcn_l_my	ground_force_calcn_l_mz
0	-97.293	504.081	27.3373	0.107162	0	-0.223211	-0.107976	0.559429	0.0303389	0	0	0	0	0	0	0	0	0
0.01	-104.807	528.894	21.9789	0.11138	0	-0.221783	-0.0778494	0.392857	0.0163257	0	0	0	0	0	0	0	0	0
0.02	-112.648	556.393	15.9183	0.11653	0	-0.220074	-0.048607	0.240081	0.0068687	0	0	0	0	0	0	0	0	0
0.03	-120.546	586.162	9.30294	0.121749	0	-0.218367	-0.0235485	0.114506	0.00181732	0	0	0	0	0	0	0	0	0
0.04	-128.22	617.906	2.32561	0.1269	0	-0.216715	-0.00576027	0.0277593	0.000104478	0	0	0	0	0	0	0	0	0
0.05	-135.403	651.429	-4.81623	0.131863	0	-0.215164	0.00282039	-0.013569	0.00010032	0	0	0	0	0	0	0	0	0
0.06	-141.858	686.484	-11.9269	0.136543	0	-0.213746	0.00173992	-0.00841991	0.000146286	0	0	0	0	0	0	0	0	0
0.07	-147.37	722.625	-18.7933	0.14087	0	-0.212483	-0.00841741	0.0412745	-0.00107342	0	0	0	0	0	0	0	0	0
0.08	-151.737	759.135	-25.1905	0.144805	0	-0.211384	-0.0263084	0.131621	-0.00436758	0	0	0	0	0	0	0	0	0
0.09	-154.783	795.069	-30.9334	0.148338	0	-0.210443	-0.0495075	0.254303	-0.00989404	0	0	0	0	0	0	0	0	0
0.1	-156.395	829.347	-35.9196	0.151486	0	-0.209642	-0.0747276	0.396274	-0.0171629	0	0	0	0	0	0	0	0	0
0.11	-156.523	860.861	-40.125	0.15429	0	-0.208953	-0.0987105	0.542899	-0.0253047	0	0	0	0	0	0	0	0	0
0.12	-155.188	888.605	-43.5816	0.156797	0	-0.208346	-0.118816	0.680339	-0.0333672	0	0	0	0	0	0	0	0	0
0.13	-152.469	911.784	-46.3566	0.159059	0	-0.207794	-0.133193	0.796507	-0.0404958	0	0	0	0	0	0	0	0	0
0.14	-148.487	929.873	-48.5262	0.161128	0	-0.207276	-0.140827	0.881898	-0.0460226	0	0	0	0	0	0	0	0	0
0.15	-143.389	942.626	-50.1584	0.163046	0	-0.206778	-0.141466	0.929979	-0.0494855	0	0	0	0	0	0	0	0	0
0.16	-137.338	950.053	-51.3092	0.164852	0	-0.20629	-0.135504	0.937361	-0.0506238	0	0	0	0	0	0	0	0	0
0.17	-130.504	952.374	-52.0237	0.166575	0	-0.205807	-0.12384	0.903743	-0.0493672	0	0	0	0	0	0	0	0	0
0.18	-123.057	949.973	-52.3388	0.168245	0	-0.205329	-0.107683	0.831288	-0.0457998	0	0	0	0	0	0	0	0	0
0.19	-115.17	943.356	-52.286	0.169882	0	-0.204857	-0.0883803	0.723922	-0.0401237	0	0	0	0	0	0	0	0	0
0.2	-107.007	933.121	-51.8958	0.171512	0	-0.204398	-0.0672758	0.586654	-0.0326269	0	0	0	0	0	0	0	0	0
0.21	-98.7273	919.94	-51.2047	0.173153	0	-0.203953	-0.0456169	0.425058	-0.0236591	0	0	0	0	0	0	0	0	0
0.22	-90.4718	904.539	-50.2586	0.174823	0	-0.20353	-0.0245056	0.245008	-0.0136133	0	0	0	0	0	0	0	0	0
0.23	-82.3617	887.668	-49.1106	0.176537	0	-0.203136	-0.004857	0.0523471	-0.00289613	0	0	0	0	0	0	0	0	0
0.24	-74.4942	870.072	-47.8142	0.178309	0	-0.202775	0.0126231	-0.147434	0.00810213	0	0	0	0	0	0	0	0	0
0.25	-66.9449	852.461	-46.4161	0.180147	0	-0.202454	0.0274504	-0.349547	0.0190327	0	0	0	0	0	0	0	0	0
0.26	-59.7693	835.473	-44.9541	0.182062	0	-0.202179	0.0393561	-0.550132	0.0296008	0	0	0	0	0	0	0	0	0
0.27	-53.0051	819.662	-43.4613	0.184061	0	-0.201951	0.0482552	-0.746211	0.0395666	0	0	0	0	0	0	0	0	0
0.28	-46.6746	805.468	-41.9738	0.18615	0	-0.201771	0.0542014	-0.935359	0.0487426	0	0	0	0	0	0	0	0	0
0.29	-40.7865	793.207	-40.5346	0.188339	0	-0.201633	0.057359	-1.11551	0.0570048	0	0	0	0	0	0	0	0	0
0.3	-35.3375	783.082	-39.1926	0.190632	0	-0.201532	0.0579814	-1.28487	0.0643069	0	0	0	0	0	0	0	0	0
0.31	-30.3133	775.193	-38.0003	0.193036	0	-0.201457	0.0563866	-1.44196	0.0706855	0	0	0	0	0	0	0	0	0
0.32	-25.6879	769.561	-37.0111	0.19555	0	-0.2014	0.0529286	-1.58564	0.0762595	0	0	0	0	0	0	0	0	0
0.33	-21.4236	766.147	-36.2773	0.198172	0	-0.20135	0.0479679	-1.71542	0.0812255	0	0	0	0	0	0	0	0	0
0.34	-17.4721	764.862	-35.8454	0.200892	0	-0.2013	0.0418408	-1.83162	0.0858395	0	0	0	0	0	0	0	0	0
0.35	-13.778	765.581	-35.7509	0.203698	0	-0.201243	0.0348314	-1.93541	0.0903795	0	0	0	0	0	0	0	0	0
0.36	-10.2805	768.15	-36.0136	0.206572	0	-0.201173	0.0271515	-2.02874	0.0951145	0	0	0	0	0	0	0	0	0
0.37	-6.915	772.403	-36.639	0.209498	0	-0.201086	0.018928	-2.11425	0.10029	0	0	0	0	0	0	0	0	0
0.38	-3.616	778.172	-37.6229	0.212463	0	-0.200978	0.0102	-2.19506	0.106126	0	0	0	0	0	0	0	0	0
0.39	-0.321089	785.302	-38.9578	0.215453	0	-0.200841	0.000929965	-2.27446	0.112833	0	0	0	0	0	0	0	0	0
